<svg xmlns="http://www.w3.org/2000/svg" width="56" height="56" viewBox="0 0 56 56"><path fill="#231300" fill-rule="nonzero" d="M54.98 51.543l-.17-.121-1.189-.79a.42.42 0 0 0-.34-.08c-.03.01-.07.02-.11.03l-.01.01-11.5-11.51a.422.422 0 0 0-.1-.07c-.01 0-.01 0-.02-.01a.487.487 0 0 0-.68.01l-.09.09c-2.88-2.67-5.28-9.6-6.38-13.11v-.02a16.921 16.921 0 0 1-.42-3.38v-.12c0-.31.02-.63.03-.95a16.052 16.052 0 0 0-.15-2.17 21.805 21.805 0 0 0-6.41-12.33c-7.33-7.33-17.88-8.71-23.51-3.08-5.63 5.63-4.24 16.18 3.1 23.511a21.187 21.187 0 0 0 14.48 6.54h.48c1.346-.036 2.69.102 4 .41h.02c3.51 1.09 10.43 3.51 13.08 6.38l-.09.09a.5.5 0 0 0-.06.62.47.47 0 0 0 .12.189l11.47 11.48a.495.495 0 0 0-.04.61l.24.351.54.76.17.24a.487.487 0 0 0 .68.129l.07-.06 2.87-2.89a.448.448 0 0 0 .06-.07.509.509 0 0 0-.14-.689zm-22.409-33.74l.02.019-.02.01c.13.55.23 1.1.31 1.65.171 1.196.188 2.41.05 3.61l-.26.26-2.81-2.81 2.71-2.71v-.03zm-18.87-.441l-2.72 2.72-2.75-2.74 2.73-2.73 2.74 2.75zm-2.39-3.1l2.72-2.72 2.74 2.75-2.72 2.72-2.74-2.75zm2.74 3.45l2.8 2.79-2.73 2.73-2.79-2.8 2.72-2.72zm.35-.35l2.72-2.73 2.8 2.8-2.73 2.72-2.79-2.79zm3.07-3.07l2.72-2.72 2.79 2.79-2.71 2.72-2.8-2.79zm2.8 3.49l2.74 2.74-2.72 2.73-2.75-2.75 2.73-2.72zm.35-.35l2.71-2.72 2.75 2.75-2.72 2.71-2.74-2.74zm5.81.37l2.74 2.74-2.72 2.72-2.74-2.74 2.72-2.72zm3.08 3.09l2.81 2.811-2.72 2.719-2.8-2.81 2.71-2.72zm-2.73-3.43l2.72-2.73 2.74 2.74-2.73 2.72-2.73-2.73zm-.35-.35l-2.75-2.75 2.73-2.72 2.74 2.74-2.72 2.73zm-3.1-3.1l-2.79-2.79 2.72-2.73 2.8 2.8-2.73 2.72zm-3.14-3.14l-2.74-2.75 2.72-2.72 2.75 2.75-2.73 2.72zm-.35.35l-2.72 2.72-2.74-2.75 2.72-2.72 2.74 2.75zm-5.81-.38l-2.75-2.74 2.72-2.72 2.75 2.74-2.72 2.72zm-.35.35l-2.72 2.73-2.75-2.75 2.73-2.72 2.74 2.74zm-5.82-.37l-2.74-2.74 2.73-2.72 2.74 2.74-2.73 2.72zm-.35.35l-2.72 2.72-2.74-2.73 2.73-2.73 2.73 2.74zm.35.35l2.75 2.74-2.73 2.73-2.74-2.75 2.72-2.72zm2.77 8.91l-2.73 2.73-2.74-2.75 2.72-2.72 2.75 2.74zm.35.35l2.79 2.79-2.72 2.73-2.8-2.8 2.73-2.72zm3.14 3.14l2.75 2.75-2.73 2.72-2.74-2.74 2.72-2.73zm.35-.35l2.72-2.72 2.75 2.75-2.73 2.72-2.74-2.75zm5.82.37l2.74 2.74-2.73 2.73-2.74-2.74 2.73-2.73zm.35-.34l2.72-2.73 2.74 2.74-2.72 2.72-2.74-2.73zm5.81.36l2.8 2.81-2.72 2.72-2.81-2.81 2.73-2.72zm3.15 3.15l1.37 1.37c-.332.486-.71.938-1.13 1.35v.01c-.496.495-1.042.938-1.63 1.32l-1.33-1.32 2.72-2.73zm.35-.34l2.72-2.72.11.1c-.25 1.391-.77 2.72-1.53 3.91l-1.3-1.29zm2.36-9.93l-2.46-2.46 1.04-1.04a18.084 18.084 0 0 1 1.42 3.5zm-1.66-3.96l-1.15 1.15-2.75-2.74 1.69-1.69a22.196 22.196 0 0 1 2.21 3.28zm-3.9-5.17c.49.49.95.99 1.38 1.51l-1.72 1.72-2.8-2.79 1.73-1.73c.48.41.95.84 1.41 1.29zm-1.79-1.61l-1.7 1.7-2.74-2.75 1.17-1.17c1.155.64 2.25 1.383 3.27 2.22zm-3.72-2.46l-1.07 1.06-2.54-2.53c1.25.365 2.46.858 3.61 1.47zm-1.42 1.41l-2.72 2.73-2.75-2.75 2.73-2.72 2.74 2.74zm-8.12-3.55a15.5 15.5 0 0 1 4.98.42.147.147 0 0 1 .07.01l-2.75 2.75-2.74-2.74.44-.44zm1.95 3.53l-2.71 2.72-2.74-2.74 2.71-2.72 2.74 2.74zm-3.33-3.33l.25.24-2.72 2.72-1.44-1.44a10.815 10.815 0 0 1 3.91-1.52zm-5.69 2.93c.416-.42.871-.798 1.36-1.13l1.51 1.51-2.72 2.72-1.48-1.47c.389-.585.834-1.131 1.33-1.63zm-1.59 2.07l1.39 1.38-2.73 2.73-.09-.09c.221-1.417.706-2.78 1.43-4.02zm-1.54 5.01l.2-.21 2.74 2.74-2.51 2.51a15.651 15.651 0 0 1-.43-5.04zm3.29 2.88l2.74 2.75-2.72 2.72-2.75-2.74 2.73-2.73zm-2.39 3.76l2.06 2.06-.82.82a18.452 18.452 0 0 1-1.24-2.88zm1.48 3.34l.93-.93 2.75 2.74-1.45 1.451a20.964 20.964 0 0 1-2.23-3.261zm3.84 5.06c-.46-.459-.89-.93-1.3-1.41l1.48-1.49 2.8 2.8-1.48 1.48c-.51-.429-1.01-.89-1.5-1.38zm1.88 1.69l1.45-1.44 2.74 2.74-.9.91a21.901 21.901 0 0 1-3.29-2.21zm3.74 2.45l.8-.8 1.98 1.98a21.049 21.049 0 0 1-2.78-1.18zm3.79 1.49l-2.64-2.64 2.72-2.72 2.74 2.74-2.67 2.67c-.05-.02-.1-.03-.15-.05zm5.95.56c-1.756.168-3.527.04-5.24-.38l2.46-2.46 2.83 2.83a.454.454 0 0 1-.05.01zm-2.43-3.18l2.73-2.729 2.8 2.809-2.72 2.72-2.81-2.8zm3.25 3.06l2.63-2.63 1.24 1.24a10.992 10.992 0 0 1-3.87 1.39zm15.03 6.09a.486.486 0 0 0-.13.24c-3.15-2.52-8.8-4.54-12.1-5.58a.358.358 0 0 1-.1-.23.308.308 0 0 1 .22-.34c.01-.01.01 0 .02-.01a11.215 11.215 0 0 0 3.69-2.449l.01-.01a11.27 11.27 0 0 0 2.49-3.781.307.307 0 0 1 .31-.15.383.383 0 0 1 .23.09c1.03 3.29 3.05 8.95 5.57 12.091a.388.388 0 0 0-.21.13zm12.3 13.55l-11.21-11.21 1.2-1.209 11.22 11.219-1.21 1.2zm.67 1.62l-.36-.53 1.87-1.88.52.361-2.03 2.049zm-40.37-15.78a7.39 7.39 0 1 0 7.39 7.39 7.399 7.399 0 0 0-7.39-7.39zm0 13.78a6.39 6.39 0 1 1 0-12.78 6.245 6.245 0 0 1 2.95.731c.078.193.1.405.06.61-.17.503-.549.908-1.04 1.109a6.659 6.659 0 0 0-3.15 5.781 4.483 4.483 0 0 0 1.16 3.25c.53.518 1.201.87 1.93 1.01a6.419 6.419 0 0 1-1.91.289zm3.21-.87c-1 .081-1.99-.251-2.74-.919a3.897 3.897 0 0 1-.95-2.76 5.898 5.898 0 0 1 2.78-5.16 2.475 2.475 0 0 0 1.39-1.58c.02-.102.03-.191.04-.281a6.379 6.379 0 0 1-.52 10.7zm-8.653-5.316a.258.258 0 0 1-.066-.007.349.349 0 0 1-.278-.409c.664-3.503 2.672-4.65 2.758-4.697a.35.35 0 0 1 .34.611c-.019.012-1.81 1.057-2.41 4.217a.35.35 0 0 1-.344.286z"/></svg>